<svg width="956" height="211" viewBox="0 0 956 211" fill="none" xmlns="http://www.w3.org/2000/svg">
<path d="M503.441 54.332L447.555 203.302H413.767L484.17 31.4316H505.753L503.441 54.332ZM550.205 203.302L494.191 54.332L491.75 31.4316H513.462L584.122 203.302H550.205Z" fill="#65558F"/>
<path fill-rule="evenodd" clip-rule="evenodd" d="M484.171 31.4313H513.462L584.123 203.302H550.206L498.822 66.6461L447.556 203.302H413.767L484.171 31.4313ZM498.83 88.8789L453.184 210.555H402.362L478.707 24.1787H518.919L595.542 210.555H544.582L498.83 88.8789Z" fill="#65558F"/>
<path d="M366.406 187.058V210.549H236.519V187.058H366.406ZM363.451 56.9744L248.467 210.549H226.884V191.78L342.253 38.6777H363.451V56.9744ZM351.503 38.6777V62.2864H227.655V38.6777H351.503Z" fill="#64748B"/>
<path d="M83.1438 0V25.6257H51.0439V0H83.1438Z" fill="#64748B"/>
<path d="M121.19 132.883H73.5268L73.2698 111.281H114.895C121.918 111.281 127.871 110.337 132.753 108.448C137.721 106.481 141.489 103.687 144.059 100.067C146.628 96.3683 147.913 91.922 147.913 86.7281C147.913 80.9834 146.714 76.301 144.316 72.681C141.917 69.061 138.234 66.4247 133.267 64.7721C128.385 63.1195 122.132 62.2932 114.51 62.2932H83.2907V210.555H51.0439V38.6846H114.51C124.788 38.6846 133.952 39.5896 142.003 41.3996C150.14 43.2096 157.034 46.0426 162.687 49.8987C168.426 53.676 172.751 58.4765 175.663 64.2999C178.661 70.1234 180.16 77.0486 180.16 85.0755C180.16 92.1581 178.318 98.6505 174.635 104.553C170.952 110.376 165.514 115.137 158.319 118.836C151.125 122.535 142.174 124.738 131.468 125.446L121.19 132.883ZM119.777 210.555H63.3774L77.8949 187.065H119.777C127.057 187.065 133.138 185.963 138.02 183.76C142.902 181.477 146.542 178.369 148.941 174.434C151.424 170.421 152.666 165.738 152.666 160.387C152.666 154.8 151.596 149.96 149.454 145.868C147.313 141.697 143.93 138.51 139.305 136.306C134.68 134.024 128.642 132.883 121.19 132.883H84.9609L85.2178 111.281H132.368L139.691 119.426C149.968 119.741 158.405 121.826 165 125.682C171.68 129.538 176.648 134.536 179.903 140.674C183.157 146.812 184.785 153.422 184.785 160.505C184.785 171.444 182.172 180.612 176.948 188.009C171.809 195.406 164.4 201.033 154.722 204.889C145.044 208.667 133.395 210.555 119.777 210.555Z" fill="#64748B"/>
<path d="M129.452 38.6846V62.3763H0V38.6846H129.452Z" fill="#65558F"/>
<path d="M83.1436 210.812H51.0437V43.0361H83.1436V210.812Z" fill="#65558F"/>
<path d="M631.485 38.6777H697.649C711.867 38.6777 723.986 40.6451 734.007 44.5799C744.028 48.5147 751.694 54.3381 757.004 62.0503C762.4 69.6837 765.098 79.1272 765.098 90.3806C765.098 98.9584 763.385 106.513 759.959 113.045C756.533 119.577 751.694 125.085 745.441 129.571C739.189 133.978 731.737 137.401 723.087 139.841L713.323 144.208H701.2L700.943 120.718H698.163C705.871 120.718 712.295 119.459 717.434 116.94C722.573 114.422 726.427 110.999 728.997 106.671C731.652 102.264 732.979 97.3058 732.979 91.7971C732.979 85.8163 731.695 80.6224 729.125 76.2154C726.641 71.7298 722.787 68.3066 717.562 65.9457C712.338 63.5061 705.7 62.2864 697.649 62.2864H663.732V210.549H631.485V38.6777ZM738.247 210.549L701.2 144.208L728.097 133.23L772.678 209.014V210.549H738.247Z" fill="#64748B"/>
<path d="M814.771 38.6777H880.935C895.153 38.6777 907.272 40.6451 917.293 44.5799C927.314 48.5147 934.98 54.3381 940.29 62.0503C945.686 69.6837 948.384 79.1272 948.384 90.3806C948.384 98.9584 946.671 106.513 943.245 113.045C939.819 119.577 934.98 125.085 928.727 129.571C922.475 133.978 915.023 137.401 906.373 139.841L896.609 144.208H884.486L884.229 120.718H881.449C889.158 120.718 895.581 119.459 900.72 116.94C905.859 114.422 909.713 110.999 912.283 106.671C914.938 102.264 916.265 97.3058 916.265 91.7971C916.265 85.8163 914.981 80.6224 912.411 76.2154C909.927 71.7298 906.073 68.3066 900.849 65.9457C895.624 63.5061 888.986 62.2864 880.935 62.2864H847.018V210.549H814.771V38.6777ZM921.533 210.549L884.486 144.208L911.383 133.23L955.964 209.014V210.549H921.533Z" fill="#64748B"/>
</svg>
