<svg width="957" height="212" viewBox="0 0 957 212" fill="none" xmlns="http://www.w3.org/2000/svg">
<path d="M503.976 54.7275L448.09 203.698H414.302L484.705 31.8271H506.289L503.976 54.7275ZM550.74 203.698L494.726 54.7275L492.285 31.8271H513.997L584.657 203.698H550.74Z" fill="#65558F"/>
<path fill-rule="evenodd" clip-rule="evenodd" d="M484.706 31.8268H513.998L584.658 203.698H550.741L499.357 67.0416L448.091 203.698H414.302L484.706 31.8268ZM499.365 89.2744L453.719 210.95H402.897L479.243 24.5742H519.454L596.077 210.95H545.117L499.365 89.2744Z" fill="#65558F"/>
<path d="M366.941 187.453V210.944H237.054V187.453H366.941ZM363.986 57.3699L249.002 210.944H227.419V192.175L342.788 39.0732H363.986V57.3699ZM352.038 39.0732V62.6819H228.19V39.0732H352.038Z" fill="white"/>
<path d="M83.6789 0.395508V26.0213H51.5791V0.395508H83.6789Z" fill="white"/>
<path d="M121.726 133.278H74.0619L73.805 111.676H115.43C122.454 111.676 128.406 110.731 133.288 108.843C138.256 106.875 142.024 104.082 144.594 100.462C147.163 96.7628 148.448 92.3165 148.448 87.1227C148.448 81.3779 147.249 76.6955 144.851 73.0755C142.453 69.4555 138.77 66.8192 133.802 65.1666C128.92 63.514 122.668 62.6877 115.045 62.6877H83.8259V210.95H51.5791V39.0791H115.045C125.323 39.0791 134.487 39.9841 142.538 41.7941C150.675 43.6041 157.57 46.4371 163.222 50.2932C168.961 54.0706 173.286 58.871 176.198 64.6945C179.196 70.5179 180.695 77.4431 180.695 85.47C180.695 92.5526 178.853 99.045 175.17 104.947C171.488 110.771 166.049 115.532 158.854 119.23C151.66 122.929 142.709 125.133 132.003 125.841L121.726 133.278ZM120.312 210.95H63.9125L78.43 187.459H120.312C127.592 187.459 133.674 186.358 138.556 184.154C143.438 181.872 147.078 178.763 149.476 174.829C151.96 170.815 153.201 166.133 153.201 160.782C153.201 155.194 152.131 150.354 149.99 146.262C147.848 142.091 144.465 138.904 139.84 136.701C135.215 134.419 129.177 133.278 121.726 133.278H85.496L85.753 111.676H132.903L140.226 119.821C150.504 120.135 158.94 122.221 165.535 126.077C172.216 129.933 177.183 134.93 180.438 141.068C183.692 147.207 185.32 153.817 185.32 160.9C185.32 171.838 182.708 181.006 177.483 188.404C172.344 195.801 164.935 201.428 155.257 205.284C145.579 209.061 133.93 210.95 120.312 210.95Z" fill="white"/>
<path d="M129.987 39.0791V62.7708H0.535156V39.0791H129.987Z" fill="#65558F"/>
<path d="M83.6787 211.208H51.5789V43.4316H83.6787V211.208Z" fill="#65558F"/>
<path d="M632.021 39.0732H698.184C712.402 39.0732 724.521 41.0406 734.542 44.9754C744.563 48.9102 752.229 54.7336 757.539 62.4458C762.935 70.0792 765.633 79.5227 765.633 90.7761C765.633 99.3539 763.92 106.909 760.494 113.44C757.068 119.972 752.229 125.481 745.976 129.966C739.724 134.373 732.273 137.797 723.622 140.236L713.858 144.604H701.735L701.478 121.113H698.698C706.407 121.113 712.83 119.854 717.969 117.336C723.108 114.818 726.962 111.394 729.532 107.066C732.187 102.659 733.514 97.7013 733.514 92.1926C733.514 86.2118 732.23 81.0179 729.66 76.611C727.176 72.1253 723.322 68.7021 718.098 66.3412C712.873 63.9016 706.235 62.6819 698.184 62.6819H664.267V210.944H632.021V39.0732ZM738.782 210.944L701.735 144.604L728.632 133.626L773.213 209.409V210.944H738.782Z" fill="white"/>
<path d="M815.307 39.0732H881.47C895.688 39.0732 907.807 41.0406 917.828 44.9754C927.849 48.9102 935.515 54.7336 940.825 62.4458C946.221 70.0792 948.919 79.5227 948.919 90.7761C948.919 99.3539 947.206 106.909 943.78 113.44C940.354 119.972 935.515 125.481 929.262 129.966C923.01 134.373 915.559 137.797 906.908 140.236L897.144 144.604H885.021L884.764 121.113H881.984C889.693 121.113 896.116 119.854 901.255 117.336C906.394 114.818 910.248 111.394 912.818 107.066C915.473 102.659 916.801 97.7013 916.801 92.1926C916.801 86.2118 915.516 81.0179 912.946 76.611C910.463 72.1253 906.608 68.7021 901.384 66.3412C896.159 63.9016 889.521 62.6819 881.47 62.6819H847.553V210.944H815.307V39.0732ZM922.068 210.944L885.021 144.604L911.919 133.626L956.499 209.409V210.944H922.068Z" fill="white"/>
</svg>
